<svg id="Layer_1" data-name="Layer 1" xmlns="http://www.w3.org/2000/svg" viewBox="0 0 1000 338.53"><defs><style>.cls-1{fill:#fff;}</style></defs><title>streamJitsi</title><path   d="M284,55.69c24.6,0,49.2.05,73.8,0,13.66,0,17.27,3.94,15.19,17.65Q365.08,125.18,357,177c-4.42,28.54-9,57.06-13.32,85.61-2.47,16.17-7.85,20.75-24.1,21-47.62.67-95.23,1.54-142.85,2.32-11.53.19-15.28-1.69-17.5-8.67-2.15-6.79.55-12.28,9.48-18.15q36.74-24.1,73.6-48c14-9.12,28-18.13,41.88-27.46,11.71-7.91,12-20.31.91-28.94q-43.77-34.08-87.57-68.1c-7.61-5.92-9.73-10.61-7.61-17,2.2-6.63,9.07-11.44,17.52-11.49,25.5-.15,51-.06,76.5-.06Z"/><path d="M55.57,263.91c-11.29,0-15.92-5.38-14.53-14.39C48.68,199.71,56.68,150,63.77,100.07c1.84-12.95,16.48-21.3,28.66-11.35,29.31,24,59.56,46.78,89.42,70.09,9.77,7.62,9.25,17.47-1.7,24.84-17,11.44-34.26,22.51-51.4,33.76-21.43,14.07-42.81,28.21-64.31,42.17A65.19,65.19,0,0,1,55.57,263.91Z"/><path d="M910,159.49H881.09l8.18-40.85c.22-1.11.57-2.2.68-3.32.55-5.55.72-11.07-5.33-14-5-2.47-13.08-.91-16.48,4.27a49.73,49.73,0,0,0-6.35,15.38c-2.7,11.16-4.79,22.49-6.79,33.81-.67,3.83-2.08,5.4-6.11,5.26-7.64-.28-15.29-.08-23.92-.08,2-10.49,3.88-20.33,5.82-30.16,3.07-15.48,6.4-30.91,9.17-46.44.91-5.08,3-6.8,8-6.4a110.28,110.28,0,0,0,14.88,0c4.29-.23,6.52,1.06,5.15,6.52,17.67-10,34.06-12.34,47.56,2.89,9.35-3.55,18.1-8.75,27.4-10,22.92-3.2,36.22,11.15,32.67,34.13-2.34,15.14-5.56,30.15-8.68,45.15-.34,1.64-2.55,4-4,4.11-8.29.39-16.6.19-25.75.19,2.67-13.55,5.2-26.32,7.7-39.1a60.78,60.78,0,0,0,1.09-6.66c.41-5.09.53-10.44-5.16-12.74C935,99,928.81,99.91,924.81,105a34.78,34.78,0,0,0-6.21,13.21C915.38,131.74,912.87,145.49,910,159.49Z"/><path d="M375.61,150.67c4.14-7.85,7.89-15,11.16-21.19,10.48,3,20.17,6.6,30.18,8.33,5.94,1,12.52-.36,18.53-1.8,2.39-.57,5.49-4.17,5.59-6.51s-2.79-5.65-5.19-6.78c-5-2.38-10.64-3.59-16-5.3-3.65-1.16-7.37-2.16-10.92-3.58-21.08-8.49-26-31.63-10.34-48.34,8.85-9.41,20.46-12.69,32.79-14.27,17.06-2.18,37.87,1.75,47.72,9.33l-9.79,20c-9.76-2.16-18.78-4.89-28-5.89-5.32-.57-11.16,1.05-16.31,2.92-2.27.82-4.63,4.69-4.7,7.23-.05,2.08,2.85,5,5.15,6.19,3.73,2,8,2.88,12.11,4.15,4.73,1.47,9.6,2.56,14.23,4.3,22.3,8.38,27,32.68,9.49,49.13-7.5,7.05-16.69,10.65-26.71,12.08C414.24,163.61,394.69,161.4,375.61,150.67Z"/><path d="M790.37,85.54c-.1-9.22,5.7-8.91,11.88-8.59,6,.31,12,.07,18.89.07-3.48,17.69-6.75,34.4-10,51.11-1.75,8.83-3.67,17.64-5.22,26.51-.7,4.05-2.44,5.6-6.69,5.39-6.93-.36-13.88-.1-21.16-.1-.12-2.19-.21-3.92-.31-5.86a8.42,8.42,0,0,0-1.89.6c-25,15.54-52.47,2.23-55.75-27C716.63,97,741.81,72,772,76.33a32.25,32.25,0,0,1,9.59,3C784.51,80.78,787,83.09,790.37,85.54ZM784.58,116c.2-8.76-3.76-14.75-10.92-16.5a18.86,18.86,0,0,0-20.19,7.66c-5.09,7.46-6,19.26-1.14,24.79a17.87,17.87,0,0,0,9.6,5.41C774.58,139.5,784.25,130.07,784.58,116Z"/><path d="M688.45,133c3.75,5.63,7.56,11.37,11.35,17.05-17,14.86-51.4,14.94-67.64.46s-14.84-45.2,3.11-61.81c14.27-13.21,39.57-17,57-8.54,17.62,8.56,21.34,25,18.27,41.66-.29,1.6-4.14,3.58-6.38,3.62-15.55.32-31.12.17-46.69.17h-7.3C651.3,140.05,666.85,142.91,688.45,133Zm-4-22.87c-.66-9.1-5.11-13.29-13.88-13.64-9.9-.39-17.05,4.89-18.29,13.64Z"/><path d="M369.7,274,389,255.63c2.56,2.41,4.73,4.93,7.35,6.83,9.12,6.64,21.41,4.35,24.16-5.64,4.64-16.83,7.6-34.12,11.5-52.3H394.86c1.69-8.42,3.17-15.82,4.63-23.1h66.84c-2.59,13.09-4.93,25.67-7.59,38.19-3,14.32-5.18,29-9.82,42.78-9.61,28.66-52,38.11-74.15,17.2C373.15,278.07,371.78,276.28,369.7,274Z"/><path d="M667.36,210.38l-9.46,18.8c-8.8-1.63-17-3.72-25.36-4.47-4.82-.43-12.27-.74-12.69,5.7-.39,5.87,6.9,4.89,11.18,6.07,4.78,1.3,9.72,2,14.46,3.43,8,2.36,14.53,6.44,16,15.51,1.55,9.42-.86,18.08-8.66,23.45a57.2,57.2,0,0,1-20.74,9c-16.9,3.31-33.6,1.7-50.13-6.41,3.57-6.9,6.94-13.39,9.75-18.81,9.65,2.12,18.35,4.09,27.09,5.91a8.58,8.58,0,0,0,4.69,0c3.67-1.48,7.17-3.39,10.74-5.14-3.12-1.93-6-4.5-9.42-5.64-5.31-1.78-11-2.36-16.43-3.88-8-2.26-14.66-6.46-16.18-15.39-1.63-9.53.34-18.91,8.71-24a78.42,78.42,0,0,1,25.42-9.73C640.05,202.05,653.62,204.36,667.36,210.38Z"/><path d="M534.05,136.83c1.18,6.13,2.48,11.57,3.11,17.09.14,1.27-1.74,3.54-3.17,4.08-10.43,3.94-21.12,4.78-31.69.68-10.35-4-15.61-13.7-13.81-25.84,1.49-10,3.72-19.92,5.77-30.67l-11.9-.63c1.45-7.16,2.82-13.92,4.26-21l12-.7L503.08,59h28.73c-1.24,6.86-2.42,13.42-3.79,21H546.5c-1.31,7-2.11,13-3.77,18.71-.42,1.45-3.57,2.89-5.52,3-13.69.63-13.71.51-16.51,14-.83,4-1.58,8-2.32,11.95-1.64,8.82,2,12.46,10.7,10.63C530.39,138,531.66,137.51,534.05,136.83Z"/><path d="M570,265.12c.69,3.67,1.36,7.19,2,10.72,1.87,9.91,2,10.41-7.79,12.08a67,67,0,0,1-20.13.61c-12.92-1.78-20.51-11-19.68-24.09.59-9.16,2.94-18.21,4.5-27.31.34-2,.66-3.92,1.11-6.52l-11.6-1.12c1.29-6.55,2.16-12.75,3.93-18.68.4-1.35,4-2.64,5.94-2.47,5.19.45,6.92-1.72,7.84-6.59,2.86-15,3.07-15,18.27-15h13.44c-1.36,7.52-2.53,14-3.83,21.26h18.56c-1.43,7-2.48,13.37-4.15,19.53-.31,1.16-3,2.24-4.68,2.36-4.48.32-9,.11-14.28.11-1.9,9.68-4.06,19.09-5.48,28.6-.87,5.88,2.62,8.9,8.54,8.23A65.23,65.23,0,0,0,570,265.12Z"/><path d="M549.65,159.93c3.61-18.34,7-35.55,10.39-52.75,1.62-8.18,3.52-16.31,4.86-24.53.67-4.08,2.19-5.88,6.52-5.7,7.15.28,14.32.07,21.76.07-.22,2.83-.37,4.8-.44,5.75L622,73.89l-5.3,27.56c-2.1,0-3.63,0-5.17,0-14.74-.25-22,5.51-25.06,20.08-2.27,10.81-4.7,21.59-6.53,32.47-.81,4.85-2.83,6.3-7.57,6C565.23,159.64,558,159.93,549.65,159.93Z"/><path d="M670.88,287.92c5.57-28,11-55.08,16.42-82.42h28.82c-2.06,10.42-4,20.5-6,30.58-3.13,15.69-6.39,31.35-9.3,47.08-.67,3.63-2.06,4.92-5.7,4.82C687.23,287.77,679.39,287.92,670.88,287.92Z"/><path d="M465.88,287.92c5.57-28,11-55.08,16.43-82.43h28.82c-1.5,7.58-2.91,14.77-4.34,21.95-3.64,18.34-7.41,36.65-10.84,55-.77,4.1-2.26,5.72-6.56,5.54C481.78,287.69,474.15,287.92,465.88,287.92Z"/><path d="M705.7,196c-10.1-.1-16.51-5.91-16.34-14.81.19-9.6,7.78-16,18.83-15.83,9.91.13,16.44,5.69,16.46,14C724.67,189.22,716.85,196.07,705.7,196Z"/><path d="M502.51,165.34c10.3-.12,17.12,5.47,17.12,14,0,9.66-7.47,16.44-18.29,16.59-10,.15-17-5.61-17.17-14.13C484,172.35,491.66,165.47,502.51,165.34Z"/><path class="cls-1" d="M784.58,116c-.33,14.12-10,23.55-22.65,21.36a17.87,17.87,0,0,1-9.6-5.41c-4.9-5.53-4-17.33,1.14-24.79a18.86,18.86,0,0,1,20.19-7.66C780.82,101.2,784.78,107.19,784.58,116Z"/><path class="cls-1" d="M684.47,110.08H652.3c1.24-8.75,8.39-14,18.29-13.64C679.36,96.79,683.81,101,684.47,110.08Z"/></svg>